<svg width="1512" height="280" viewBox="0 0 1512 280" fill="none" xmlns="http://www.w3.org/2000/svg">
<g clip-path="url(#clip0_15_4)">
<path d="M0 78L63 104C126 130 252 182 378 221C504 260 630 286 756 253.5C882 221 1008 130 1134 78C1260 26 1386 13 1512 32.5C1638 52 1764 104 1890 136.5C2016 169 2142 182 2268 208C2394 234 2520 273 2646 247C2772 221 2898 130 3024 78C3150 26 3276 13 3402 65C3528 117 3654 234 3780 286C3906 338 4032 325 4158 279.5C4284 234 4410 156 4536 143C4662 130 4788 182 4914 214.5C5040 247 5166 260 5292 221C5418 182 5544 91 5670 45.5C5796 0 5922 0 6048 45.5C6174 91 6300 182 6426 201.5C6552 221 6678 169 6804 169C6930 169 7056 221 7182 208C7308 195 7434 117 7560 123.5C7686 130 7812 221 7938 273C8064 325 8190 338 8316 286C8442 234 8568 117 8694 91C8820 65 8946 130 9009 162.5L9072 195V390H9009C8946 390 8820 390 8694 390C8568 390 8442 390 8316 390C8190 390 8064 390 7938 390C7812 390 7686 390 7560 390C7434 390 7308 390 7182 390C7056 390 6930 390 6804 390C6678 390 6552 390 6426 390C6300 390 6174 390 6048 390C5922 390 5796 390 5670 390C5544 390 5418 390 5292 390C5166 390 5040 390 4914 390C4788 390 4662 390 4536 390C4410 390 4284 390 4158 390C4032 390 3906 390 3780 390C3654 390 3528 390 3402 390C3276 390 3150 390 3024 390C2898 390 2772 390 2646 390C2520 390 2394 390 2268 390C2142 390 2016 390 1890 390C1764 390 1638 390 1512 390C1386 390 1260 390 1134 390C1008 390 882 390 756 390C630 390 504 390 378 390C252 390 126 390 63 390H0V78Z" fill="#2C2C2C"/>
</g>
<defs>
<clipPath id="clip0_15_4">
<rect width="1512" height="390" fill="white"/>
</clipPath>
</defs>
</svg>
