<?xml version="1.0" standalone="no"?>
<svg xmlns:xlink="http://www.w3.org/1999/xlink" id="wave" style="transform:rotate(0deg); transition: 0.3s" viewBox="0 0 1440 390" version="1.1" xmlns="http://www.w3.org/2000/svg"><defs><linearGradient id="sw-gradient-0" x1="0" x2="0" y1="1" y2="0"><stop stop-color="rgba(255, 255, 255, 1)" offset="0%"/><stop stop-color="rgba(255, 255, 255, 1)" offset="100%"/></linearGradient></defs><path style="transform:translate(0, 0px); opacity:1" fill="url(#sw-gradient-0)" d="M0,78L60,104C120,130,240,182,360,221C480,260,600,286,720,253.5C840,221,960,130,1080,78C1200,26,1320,13,1440,32.5C1560,52,1680,104,1800,136.5C1920,169,2040,182,2160,208C2280,234,2400,273,2520,247C2640,221,2760,130,2880,78C3000,26,3120,13,3240,65C3360,117,3480,234,3600,286C3720,338,3840,325,3960,279.5C4080,234,4200,156,4320,143C4440,130,4560,182,4680,214.5C4800,247,4920,260,5040,221C5160,182,5280,91,5400,45.5C5520,0,5640,0,5760,45.5C5880,91,6000,182,6120,201.5C6240,221,6360,169,6480,169C6600,169,6720,221,6840,208C6960,195,7080,117,7200,123.5C7320,130,7440,221,7560,273C7680,325,7800,338,7920,286C8040,234,8160,117,8280,91C8400,65,8520,130,8580,162.5L8640,195L8640,390L8580,390C8520,390,8400,390,8280,390C8160,390,8040,390,7920,390C7800,390,7680,390,7560,390C7440,390,7320,390,7200,390C7080,390,6960,390,6840,390C6720,390,6600,390,6480,390C6360,390,6240,390,6120,390C6000,390,5880,390,5760,390C5640,390,5520,390,5400,390C5280,390,5160,390,5040,390C4920,390,4800,390,4680,390C4560,390,4440,390,4320,390C4200,390,4080,390,3960,390C3840,390,3720,390,3600,390C3480,390,3360,390,3240,390C3120,390,3000,390,2880,390C2760,390,2640,390,2520,390C2400,390,2280,390,2160,390C2040,390,1920,390,1800,390C1680,390,1560,390,1440,390C1320,390,1200,390,1080,390C960,390,840,390,720,390C600,390,480,390,360,390C240,390,120,390,60,390L0,390Z"/></svg>