<svg width="503.1000000000001" height="107.6362890907412" viewBox="0 0 302.8800070626395 64.8" class="css-1j8o68f">
    <defs id="SvgjsDefs2280"></defs>
    <g id="SvgjsG2281" featurekey="symbolFeature-0" transform="matrix(0.7495317205826912,0,0,0.7495317205826912,103.43537744041139,-315.3826954764759)" fill="#ffffff">
        <g xmlns="http://www.w3.org/2000/svg">
            <path d="M-136.961,460.5c-0.377,1.351-0.725,2.749-1.039,4.198l12.667,2.792c0.317-1.461,0.672-2.859,1.062-4.19L-136.961,460.5z"></path>
            <path d="M-121.885,456.716l-11.921-5.106c-0.561,1.28-1.098,2.616-1.601,4.015l11.954,5.124   C-122.969,459.327-122.443,457.984-121.885,456.716z"></path>
            <path d="M-118.564,450.419l-10.795-7.2c-0.75,1.176-1.482,2.419-2.19,3.737l10.856,7.239   C-120.014,452.843-119.296,451.585-118.564,450.419z"></path>
            <path d="M-40.779,487.775h-4.035v-2.161h4.324v-2.16c0-19.7-6.791-30.934-12.49-36.886c-4.475-4.68-8.974-6.934-11.287-7.863   v-9.285h-8.645l0,0v-4.325h8.645v-4.322h-34.584v4.322h8.647v4.322l0,0h-8.647v9.286c-2.309,0.932-6.808,3.184-11.283,7.861   c-5.7,5.956-12.488,17.187-12.488,36.887v2.161h4.321v2.16h-4.034l-2.782,19.455H-38L-40.779,487.775z M-94.527,433.741h4.324   h12.968v4.323h-17.292V433.741z M-107.194,449.743c4.82-5.12,9.713-6.98,10.835-7.357h20.813c3.04,4.458,9.118,16.21,9.118,38.905   h-51.843C-117.904,467.947-114.091,457.071-107.194,449.743z M-120.132,502.906l1.544-10.808h0.286h52.233l1.801,10.808H-120.132   L-120.132,502.906z M-62.106,487.775h-51.874v-2.161h51.874V487.775z"></path>
        </g>
    </g>
    <g id="SvgjsG2282" featurekey="nameLeftFeature-0" transform="matrix(2.5714285714285716,0,0,2.5714285714285716,92.94285787854876,-0.4285714285714306)" fill="#ffffff"><path d="M10.7 6 l0 2.68 l-3.48 0 l0 11.32 l-2.92 0 l0 -11.32 l-3.5 0 l0 -2.68 l9.9 0 z M23.72 20 l-3.1 0 l-2.98 -4.66 l-0.04 0 l-1.98 0 l0 4.66 l-2.92 0 l0 -14 l4.9 0 c3.14 0 5.18 1.9 5.18 4.76 c0 1.9 -0.92 3.32 -2.48 4.04 z M15.620000000000001 8.68 l0 4.14 l1.8 0 c1.44 0 2.44 -0.56 2.44 -2.06 c0 -1.48 -1 -2.08 -2.44 -2.08 l-1.8 0 z M28.240000000000002 6 l0 14 l-2.92 0 l0 -14 l2.92 0 z M39.8 6 l2.92 0 l0 14 l-2.22 0 l-6.94 -8.68 l0 8.68 l-2.92 0 l0 -14 l2.26 0 l6.9 8.7 l0 -8.7 z"></path></g><g id="SvgjsG2283" featurekey="nameRightFeature-0" transform="matrix(2.5714285714285716,0,0,2.5714285714285716,207.94285542624337,-0.4285714285714306)" fill="#ffffff"><path d="M9.84 6 l0 0.58 l-4.22 0 l0 13.42 l-0.58 0 l0 -13.42 l-4.24 0 l0 -0.58 l9.04 0 z M21.5 20 l-0.72 0 l-4.08 -5.38 c-0.2 0.02 -0.4 0.02 -0.6 0.02 l-3.68 0 l0 5.36 l-0.58 0 l0 -14 l4.26 0 c3.14 0 4.8 1.94 4.8 4.3 c0 2.08 -1.22 3.8 -3.56 4.24 z M12.42 14.04 l3.76 0 c2.52 0 4.14 -1.46 4.14 -3.74 c0 -2.32 -1.62 -3.72 -4.14 -3.72 l-3.76 0 l0 7.46 z M23.680000000000003 6 l0 14 l-0.58 0 l0 -14 l0.58 0 z M36.34 6 l0.58 0 l0 14 l-0.44 0 l-9.82 -12.9 l0 12.9 l-0.58 0 l0 -14 l0.44 0 l9.82 12.94 l0 -12.94 z"></path></g>
</svg>